<?xml version="1.0" encoding="UTF-8" standalone="no"?>
<!-- Created with Inkscape (http://www.inkscape.org/) -->
<svg
   xmlns:svg="http://www.w3.org/2000/svg"
   xmlns="http://www.w3.org/2000/svg"
   version="1.0"
   width="442.85715"
   height="474.28571"
   id="svg2739">
  <defs
     id="defs2741" />
  <g
     transform="translate(57.142857,-89.505043)"
     id="layer1">
    <path
       d="M 267.09775,509.47886 L 267.09775,502.10101 C 266.26152,491.20888 257.05243,485.35528 242.47666,484.67783 C 242.47666,484.67783 224.8312,483.35469 195.92312,484.50847 C 183.18917,483.67224 173.80013,492.0451 171.78895,505.11778 C 170.1165,523.37718 171.63017,536.26991 171.63017,536.26991 C 171.63017,546.8339 180.00304,557.71545 194.07072,558.3929 C 215.63269,559.68429 224.78886,559.68429 246.6578,558.3929 C 254.56491,558.3929 267.09775,550.71865 267.09775,541.96473 L 267.09775,532.925 L 247.16589,532.925 C 247.66339,538.61981 244.82657,541.46722 240.29612,542.13409 C 240.29612,542.13409 222.0473,543.30904 200.77112,542.47281 C 194.74817,542.30345 190.88458,536.79917 190.88458,532.41691 L 190.55644,514.66559 C 190.21772,506.80082 194.01779,500.95781 201.10985,500.92605 C 215.34689,500.75669 226.72594,500.41797 238.11557,500.92605 C 243.32347,500.92605 247.16589,505.10719 247.16589,509.47886 L 267.09775,509.47886 z"
       id="path85"
       style="fill:#231f20;fill-opacity:1;fill-rule:nonzero;stroke:none" />
    <path
       d="M 161.57317,506.96273 L 160.9063,499.9236 C 158.21767,490.53456 152.19472,485.18905 143.48313,484.68096 C 143.48313,484.68096 117.179,482.1617 85.201229,484.5116 C 74.8066,485.18905 65.428147,495.85889 65.428147,504.61282 C 64.253194,522.36414 65.597509,539.78732 65.597509,539.78732 C 66.6031,552.01318 79.823967,558.38544 88.366192,559.07348 C 88.366192,559.07348 105.11192,560.08966 140.46636,559.07348 C 148.37347,559.07348 161.07567,550.66886 161.40381,536.10368 C 161.58375,524.71405 161.40381,513.99128 161.40381,513.99128 L 112.16164,513.99128 L 112.331,528.2389 L 141.47195,528.40827 C 143.15499,535.60618 140.80508,541.96786 135.11027,541.96786 C 121.70945,543.14281 110.15045,542.97345 99.088961,542.63472 C 95.140695,542.63472 87.212409,542.80409 84.523778,534.26186 L 84.185053,512.98569 C 84.862503,505.78778 87.212409,500.59046 95.077184,500.4211 C 109.16603,499.44726 122.06935,499.44726 133.09908,500.4211 C 138.62454,501.08796 141.81067,502.74984 141.81067,507.13209 L 161.57317,506.96273 z"
       id="path89"
       style="fill:#231f20;fill-opacity:1;fill-rule:nonzero;stroke:none" />
    <path
       d="M -10.301232,526.02559 L 22.63979,525.61277 L 6.5715151,497.20219 L -10.301232,526.02559 z M -51.488096,559.08305 L -9.613197,483.67436 L 21.041431,483.67436 L 63.085693,559.08305 L 40.475788,559.08305 L 32.886227,545.0683 L -21.013416,545.0683 L -29.005213,559.08305 L -51.488096,559.08305 z"
       id="path93"
       style="fill:#231f20;fill-opacity:1;fill-rule:evenodd;stroke:none" />
    <path
       d="M 309.59929,500.82867 C 302.06265,501.5908 297.57454,505.4438 297.17231,514.73757 L 297.27816,530.09664 C 297.6063,539.73972 304.56075,541.94144 311.27174,542.13197 C 311.27174,542.13197 326.15448,542.73533 344.08574,541.84617 C 351.37892,541.48628 355.2425,536.43715 355.17899,530.66824 L 355.12607,513.20272 C 355.32719,504.46997 349.12428,501.35793 343.22835,500.97686 C 329.8487,500.09829 309.59929,500.82867 309.59929,500.82867 M 304.12676,484.03002 C 333.08776,482.51634 346.63677,484.08295 346.63677,484.08295 C 361.93233,485.42726 372.55983,489.65074 373.83005,504.18417 C 375.33314,521.26862 374.08409,538.72355 374.08409,538.72355 C 372.63392,555.27874 358.06874,558.36961 346.80613,558.36961 L 309.65221,558.36961 C 293.8274,558.36961 280.39483,554.42134 278.61652,539.401 C 276.23486,519.31036 278.37306,505.28502 278.37306,505.28502 C 279.62211,493.4614 285.89911,484.99327 304.12676,484.03002"
       id="path97"
       style="fill:#231f20;fill-opacity:1;fill-rule:nonzero;stroke:none" />
    <path
       d="M 167.15367,100.10409 L -46.126754,452.03954 L 271.91501,273.42553 L 167.15367,100.10409 z"
       id="path101"
       style="fill:#ef2921;fill-opacity:1;fill-rule:nonzero;stroke:none" />
    <path
       d="M -2.3835316,449.20585 L 40.751002,449.20585 L 275.98505,280.42545 L 273.51871,276.32899 L -2.3835316,449.20585 z"
       id="path105"
       style="fill:#ef2921;fill-opacity:1;fill-rule:nonzero;stroke:none" />
    <path
       d="M 71.27014,449.0005 L 117.5273,449.0005 L 283.54497,292.68942 L 279.58612,286.15838 L 71.27014,449.0005 z"
       id="path109"
       style="fill:#ef2921;fill-opacity:1;fill-rule:nonzero;stroke:none" />
    <path
       d="M 191.37785,448.105 L 293.41881,308.92071 L 288.50729,301.09827 L 146.53911,448.105 L 191.37785,448.105 z"
       id="path113"
       style="fill:#ef2921;fill-opacity:1;fill-rule:nonzero;stroke:none" />
    <path
       d="M 221.70646,448.58455 L 378.82201,448.58455 L 301.33863,321.85899 L 221.70646,448.58455 z"
       id="path117"
       style="fill:#ef2921;fill-opacity:1;fill-rule:nonzero;stroke:none" />
    <path
       d="M 167.15367,100.10409 L 271.91501,273.42553 L -46.126754,452.03954 L 167.15367,100.10409 z M -2.3888665,449.20272 L 273.52396,276.32586 L 275.9903,280.4329 L 40.745667,449.20272 L -2.3888665,449.20272 z M 71.273273,449.0016 L 279.58925,286.15948 L 283.53752,292.69052 L 117.53043,449.0016 L 71.273273,449.0016 z M 191.3831,448.10186 L 146.53377,448.10186 L 288.51254,301.09514 L 293.42406,308.91757 L 191.3831,448.10186 z M 221.70959,448.58878 L 301.33118,321.86323 L 378.82514,448.58878 L 221.70959,448.58878 z"
       id="path121"
       style="fill:none;stroke:#ef2921;stroke-width:1.23846388;stroke-linecap:butt;stroke-linejoin:miter;stroke-miterlimit:3.86400008;stroke-dasharray:none;stroke-opacity:1" />
  </g>
</svg>
